<svg width="31" height="29" viewBox="0 0 31 29" fill="none" xmlns="http://www.w3.org/2000/svg">
<path d="M30.8265 3.72219L30.725 3.62067C30.5896 3.48532 30.3528 3.28229 29.9805 3.28229H6.63226L6.53075 2.70705C6.29388 1.15049 4.94036 0 3.34997 0H0.981304C0.406057 0 0 0.439895 0 0.981304C0 1.52271 0.439895 1.96261 0.981304 1.96261H3.38381C3.99289 1.96261 4.50046 2.4025 4.60198 2.97775L6.63226 15.1933C6.63226 15.2948 6.6661 15.3963 6.69994 15.464L7.03832 17.562C7.34286 19.4231 9.00093 20.8104 10.862 20.8104H26.5629C27.1381 20.8104 27.5442 20.3705 27.5442 19.8291C27.5442 19.2877 27.1043 18.8478 26.5629 18.8478H10.8282C9.88072 18.8478 9.10244 18.171 8.96709 17.2913L8.76406 16.1746H27.0366C27.2396 16.2084 27.4088 16.2084 27.578 16.1069C27.8149 15.9716 28.0179 15.7347 28.0856 15.464L30.928 4.60198C31.0634 4.29744 30.9957 3.99289 30.8265 3.72219ZM28.7624 5.31258L26.3937 14.2458H8.45952L7.00448 5.31258H28.7624Z" fill="#277BFF"/>
<path d="M11.1328 21.7579C9.30553 21.7579 7.81665 23.2468 7.81665 25.0741C7.81665 26.9013 9.30553 28.3902 11.1328 28.3902C12.96 28.3902 14.4489 26.9013 14.4489 25.0741C14.4489 23.2468 12.96 21.7579 11.1328 21.7579ZM11.1328 23.7544C11.8772 23.7544 12.4186 24.3296 12.4186 25.0741C12.4186 25.7847 11.8095 26.3937 11.0989 26.3937C10.3883 26.3937 9.8131 25.7847 9.8131 25.0741C9.8131 24.3635 10.3883 23.7544 11.1328 23.7544Z" fill="#277BFF"/>
<path d="M22.0962 21.7579C20.2689 21.7579 18.78 23.2468 18.78 25.0741C18.78 26.9013 20.2351 28.424 22.0962 28.424C23.9573 28.424 25.4123 26.9352 25.4123 25.1079C25.4123 23.2806 23.9234 21.7579 22.0962 21.7579ZM22.0623 23.7544C22.8068 23.7544 23.382 24.3296 23.382 25.0741C23.382 25.7847 22.7729 26.3937 22.0623 26.3937C21.3517 26.3937 20.7426 25.7847 20.7426 25.0741C20.7088 24.3635 21.3179 23.7544 22.0623 23.7544Z" fill="#277BFF"/>
</svg>
