<?xml version="1.0" encoding="utf-8"?><svg viewBox="0 0 47 59" xmlns="http://www.w3.org/2000/svg" xmlns:xlink="http://www.w3.org/1999/xlink"><style>:root>svg{display:none}:root>svg:target{display:block}</style><svg fill="none" viewBox="0 0 32 28" id="arr" xmlns="http://www.w3.org/2000/svg"><path d="M15.612 8.527a1.134 1.134 0 01-1.602.027L9.09 3.8V23.09a1.134 1.134 0 11-2.267 0V3.8l-4.92 4.756a1.134 1.134 0 01-1.575-1.63L7.155.328l.013-.013.01-.007c.097-.092.21-.167.332-.22.008 0 .018-.006.026-.01l.03-.008C7.682.027 7.8.004 7.923 0h.066c.121.004.241.027.355.07.009 0 .018.004.027.008l.026.008h.006c.121.053.233.128.329.22l.01.006.014.013 6.826 6.598a1.134 1.134 0 01.031 1.604zm15.872 10.942a1.134 1.134 0 00-1.603-.027l-4.919 4.755V4.906a1.134 1.134 0 10-2.267 0v19.29l-4.92-4.756a1.134 1.134 0 00-1.575 1.63l6.826 6.598.014.013c0 .004.008.005.01.008.038.035.077.067.119.096.009.006.015.015.024.02.062.043.128.078.196.107l.016.005a.17.17 0 00.02.006c.022.008.045.014.067.02a.937.937 0 00.111.034c.148.03.3.03.449 0 .043-.01.084-.023.125-.038l.053-.016a.239.239 0 00.02-.006l.015-.005c.07-.029.135-.064.197-.106l.016-.013a1.28 1.28 0 00.127-.104l.01-.008.014-.013 6.826-6.598a1.134 1.134 0 00.029-1.6z" fill="#fff"/></svg><svg fill="none" viewBox="0 0 42 28" id="cloud" xmlns="http://www.w3.org/2000/svg"><path d="M16.896 0C10.907 0 6.564 4.857 6.246 10.168 2.62 11.394 0 14.798 0 18.828 0 23.882 4.118 28 9.172 28h23.173c5.331 0 9.172-3.658 9.172-8.207 0-3.577-2.339-7.043-5.883-8.01-.231-2.795-1.603-4.948-3.516-6.095-1.845-1.108-4.112-1.3-6.155-.574C24.224 2.264 21.04 0 16.896 0zm0 1.931c3.75 0 6.534 2.174 7.83 4.767a.966.966 0 001.298.438 5.33 5.33 0 015.099.196c1.529.917 2.67 2.618 2.67 5.22a.965.965 0 00.8.95c2.9.487 4.993 3.382 4.993 6.291 0 3.494-2.754 6.276-7.241 6.276H9.172a7.227 7.227 0 01-7.241-7.241 7.234 7.234 0 015.461-7.015.966.966 0 00.724-.95c-.043-4.532 3.617-8.932 8.78-8.932z" fill="#fff"/></svg><svg fill="none" viewBox="0 0 42 29" id="desctop" xmlns="http://www.w3.org/2000/svg"><path d="M5.712 0a3.089 3.089 0 00-3.076 3.076v19.773H.88c-.467 0-.875.438-.879.878v1.758A3.527 3.527 0 003.515 29h34.273a3.527 3.527 0 003.515-3.515v-1.758c0-.46-.419-.878-.879-.878h-1.757V3.076A3.089 3.089 0 0035.59 0H5.712zm0 1.758h29.879c.745 0 1.318.572 1.318 1.318v19.773H4.394V3.076c0-.746.573-1.318 1.318-1.318zM1.758 24.606h37.787v.879c0 .989-.768 1.757-1.757 1.757H3.515a1.735 1.735 0 01-1.757-1.757v-.879z" fill="#fff"/></svg><svg fill="none" viewBox="0 0 47 59" id="imprint" xmlns="http://www.w3.org/2000/svg"><g clip-path="url(#dclip0)" fill="#fff"><path d="M10.858 8.178A.977.977 0 019.52 7.82a.986.986 0 01.357-1.344A25.989 25.989 0 0122.97 2.95c4.674 0 9.145 1.241 13.055 3.567.465.277.62.88.344 1.347a.977.977 0 01-1.342.345c-3.61-2.147-7.736-3.292-12.057-3.292a24.037 24.037 0 00-12.112 3.261z"/><path d="M6.703 18.867a.977.977 0 01-1.351.306.986.986 0 01-.305-1.356C8.983 11.559 15.573 7.753 22.97 7.753c7.468 0 14.133 3.828 17.904 10.08a.986.986 0 01-.33 1.35.977.977 0 01-1.345-.332c-3.418-5.667-9.45-9.131-16.23-9.131-6.71 0-12.682 3.45-16.266 9.147z"/><path d="M19.76 42.13a.986.986 0 01-.02 1.39.976.976 0 01-1.385-.02c-4.166-4.31-6.59-9.725-6.59-14.233 0-6.708 4.73-11.908 11.204-11.908 6.26 0 10.807 4.754 11.485 11.453a.98.98 0 11-1.948.199c-.582-5.75-4.347-9.685-9.537-9.685-5.351 0-9.246 4.281-9.246 9.94 0 3.969 2.21 8.905 6.037 12.864z"/><path d="M21.713 28.494a.98.98 0 111.933-.316c.41 2.53 1.087 4.375 2.174 5.874 1 1.376 2.47 2.535 4.012 3.153a8.504 8.504 0 003.175.61c.764 0 1.523-.102 2.265-.305a.984.984 0 01.514 1.898c-.909.248-1.84.374-2.779.374-1.35 0-2.669-.256-3.902-.75-1.887-.757-3.653-2.15-4.868-3.821-1.288-1.776-2.069-3.906-2.524-6.717z"/><path d="M10.59 36.545a.985.985 0 01-.404 1.33.977.977 0 01-1.324-.406c-1.226-2.314-1.84-5.165-1.84-8.202 0-9.362 6.87-16.727 15.95-16.711 9.348.017 16.605 8.009 16.285 16.747-.13 3.565-2.67 5.339-5.951 5.39-2.986.048-5.54-2.118-6.06-5.275-.598-3.638-2.18-5.26-4.652-5.092-2.538.174-3.86 1.754-3.9 4.6-.056 3.848 2.462 8.454 5.549 10.97 1.497 1.217 2.976 1.76 6.016 2.392a.983.983 0 01-.396 1.926c-3.323-.69-5.052-1.326-6.854-2.791-3.522-2.871-6.338-8.022-6.274-12.525.055-3.822 2.117-6.287 5.726-6.534 3.6-.245 5.969 2.184 6.717 6.733.362 2.2 2.086 3.662 4.097 3.63 2.351-.037 3.94-1.146 4.025-3.496.28-7.65-6.116-14.694-14.332-14.708-7.965-.015-13.987 6.441-13.987 14.744 0 2.734.545 5.27 1.61 7.278z"/></g><defs><clipPath id="dclip0"><path fill="#fff" d="M0 0h47v59H0z"/></clipPath></defs></svg><svg fill="none" viewBox="0 0 28 30" id="line" xmlns="http://www.w3.org/2000/svg"><path d="M3.594 27.25v1.5c0 .688-.563 1.25-1.25 1.25-.688 0-1.25-.563-1.25-1.25v-1.68A2.497 2.497 0 010 25c0-.86.43-1.617 1.094-2.07V1.25c0-.688.562-1.25 1.25-1.25.687 0 1.25.563 1.25 1.25v21.5A2.493 2.493 0 015 25c0 .992-.57 1.844-1.406 2.25zM11.094 12.117V28.75c0 .688-.563 1.25-1.25 1.25-.688 0-1.25-.563-1.25-1.25V12.21a2.503 2.503 0 010-4.42V1.25c0-.688.562-1.25 1.25-1.25.687 0 1.25.563 1.25 1.25v6.633A2.505 2.505 0 0112.266 10c0 .89-.47 1.672-1.172 2.117zM18.594 22.242v6.508c0 .688-.563 1.25-1.25 1.25-.688 0-1.25-.563-1.25-1.25v-6.508a2.492 2.492 0 01-1.25-2.164c0-.922.5-1.734 1.25-2.164V1.25c0-.688.562-1.25 1.25-1.25.687 0 1.25.563 1.25 1.25v16.664c.75.43 1.25 1.242 1.25 2.164 0 .922-.5 1.735-1.25 2.164zM27.344 5.078c0 .922-.5 1.734-1.25 2.164V28.75c0 .688-.563 1.25-1.25 1.25-.688 0-1.25-.563-1.25-1.25V7.242a2.492 2.492 0 01-1.25-2.164c0-.922.5-1.734 1.25-2.164V1.25c0-.688.562-1.25 1.25-1.25.687 0 1.25.563 1.25 1.25v1.664c.75.43 1.25 1.242 1.25 2.164z" fill="#fff"/></svg><svg fill="none" viewBox="0 0 45 45" id="mark" xmlns="http://www.w3.org/2000/svg"><path d="M15.709 22.12h0a8.99 8.99 0 1113.575 0v.001a.793.793 0 00-.101.15L22.5 28.96l-6.684-6.684a.855.855 0 00-.107-.157zm11.154 4.884c4.73.286 8.191.979 10.466 1.759 1.14.39 1.977.802 2.525 1.19.274.194.47.38.598.549.128.17.18.316.18.436 0 .17-.085.366-.283.587-.198.22-.5.452-.906.686-.813.47-2.022.937-3.593 1.353-3.14.83-7.696 1.442-13.35 1.442s-10.21-.612-13.35-1.442c-1.57-.416-2.78-.884-3.593-1.353-.407-.234-.708-.466-.906-.686-.198-.22-.282-.418-.282-.587 0-.123.052-.27.18-.442.128-.171.326-.357.6-.552.55-.389 1.39-.8 2.534-1.19 2.275-.775 5.732-1.461 10.448-1.748l3.764 3.763h0a.853.853 0 001.203 0h0l3.765-3.765zM16.54 25.408c-3.308.283-6.7.834-9.296 1.697-1.34.446-2.478.978-3.284 1.606-.806.628-1.297 1.368-1.297 2.227 0 .998.67 1.85 1.769 2.562 1.101.713 2.663 1.306 4.52 1.78 3.715.948 8.65 1.432 13.548 1.432s9.833-.484 13.548-1.432c1.857-.474 3.419-1.067 4.52-1.78 1.099-.712 1.77-1.564 1.77-2.563 0-.857-.497-1.596-1.308-2.225-.81-.628-1.954-1.16-3.298-1.607-2.603-.864-5.994-1.417-9.272-1.697l2.098-2.099a.854.854 0 00.178-.259 10.696 10.696 0 10-16.48 0 .854.854 0 00.179.26l2.104 2.098z" fill="#fff" stroke="#fff" stroke-width=".3"/><path d="M26.085 19.83a5.072 5.072 0 10-7.1-7.246 5.072 5.072 0 007.1 7.246zm-5.968-5.97a3.366 3.366 0 114.76 4.758 3.366 3.366 0 01-4.76-4.759z" fill="#fff" stroke="#fff" stroke-width=".3"/></svg><svg fill="none" viewBox="0 0 24 24" id="tel" xmlns="http://www.w3.org/2000/svg"><path d="M10.234 14.385l.975.726-1.019 1.006c-.031.032-.06.066-.092.1l.016-.223.12-1.61zm2.67-4.728c-1.651 1.041-3.302 2.085-4.954 3.126-.033.02-.07.037-.107.054l.648 2.076c.154.487.314.973.46 1.462.06.202.164.31.384.273.061-.828.12-1.655.182-2.483.007-.097.019-.195.03-.291-.093-.054-.052-.156-.02-.19l.172-.178.06-.057.086-.09.409-.384a69.777 69.777 0 01.874-.813c.549-.498 1.108-.985 1.658-1.482.7-.633 1.399-1.27 2.093-1.91.05-.071.084-.162.128-.24-.124.017-.27-.004-.369.054-.584.348-1.159.71-1.734 1.073zM24 12c0 6.627-5.373 12-12 12-6.628 0-12-5.373-12-12C0 5.372 5.372 0 12 0c6.627 0 12 5.372 12 12zm-6.642-4.78c-.006-.047-.01-.094-.02-.139-.105-.509-.384-.663-.884-.492-.073.025-.148.041-.223.061-.279.115-.554.239-.837.344-.469.177-.942.342-1.415.513-.288.12-.574.245-.865.36-.729.284-1.459.563-2.188.845-1.502.58-3.004 1.158-4.507 1.737-.337.13-.678.254-1.012.393-.293.12-.593.238-.863.4-.12.073-.252.262-.238.382.013.121.198.225.312.333.02.02.056.026.085.035l2.39.739a.72.72 0 00.03.252l.29.929.381 1.219.134.419c.108.34.22.69.323 1.033.223.745.824.803 1.003.803l.083-.003.082.002c.46 0 .755-.254.931-.405.033-.029.064-.055.086-.072a.667.667 0 00.1-.09c.023-.023.043-.048.066-.071.037-.042.072-.08.102-.11.268-.265.534-.53.802-.793l.318-.313.134.092c.722.539 1.443 1.08 2.168 1.617.541.4.92.296 1.181-.315l.333-1.546.302-1.54.192-.846.505-2.384.163-.76c.013-.06.03-.12.041-.182.173-.816.344-1.631.515-2.448z" fill="#277BFF"/></svg></svg>